<svg xmlns="http://www.w3.org/2000/svg" width="171" height="225" viewBox="0 0 171 225" fill="none">
  <g opacity="0.1">
    <path d="M116.716 71.5212L73.2278 76.1856L112.901 62.9698L192.248 0L116.716 71.5212Z" fill="#3F8CFF" style="fill:#3F8CFF;fill:color(display-p3 0.2465 0.5479 1.0000);fill-opacity:1;"/>
    <path d="M131.975 97.1756L162.493 43.5347L124.346 83.1823L1.51022 94.8433L131.975 97.1756Z" fill="#3F8CFF" style="fill:#3F8CFF;fill:color(display-p3 0.2465 0.5479 1.0000);fill-opacity:1;"/>
    <path d="M98.6963 135.374L124.572 171.293L93.3711 143.042L0 104.959L98.6963 135.374Z" fill="#3F8CFF" style="fill:#3F8CFF;fill:color(display-p3 0.2465 0.5479 1.0000);fill-opacity:1;"/>
    <path d="M112.749 109.014L51.8991 109.198L104.734 122.782L176.538 225L112.749 109.014Z" fill="#3F8CFF" style="fill:#3F8CFF;fill:color(display-p3 0.2465 0.5479 1.0000);fill-opacity:1;"/>
    <path d="M162.123 118.088L181.014 77.9026L171.27 119.258L182.325 221.116L162.123 118.088Z" fill="#3F8CFF" style="fill:#3F8CFF;fill:color(display-p3 0.2465 0.5479 1.0000);fill-opacity:1;"/>
    <path d="M132.684 117.886L161.528 172.48L148.378 118.598L203 5.88649L132.684 117.886Z" fill="#3F8CFF" style="fill:#3F8CFF;fill:color(display-p3 0.2465 0.5479 1.0000);fill-opacity:1;"/>
  </g>
</svg>