<svg xmlns="http://www.w3.org/2000/svg" width="25" height="24" viewBox="0 0 25 24" fill="none">
  <path d="M13.4185 5.04348C13.4185 4.76673 13.3085 4.50132 13.1129 4.30563C12.9172 4.10994 12.6517 4 12.375 4C12.0983 4 11.8328 4.10994 11.6372 4.30563C11.4415 4.50132 11.3315 4.76673 11.3315 5.04348V10.9565H5.41848C5.14173 10.9565 4.87632 11.0665 4.68063 11.2622C4.48494 11.4578 4.375 11.7233 4.375 12C4.375 12.2767 4.48494 12.5422 4.68063 12.7379C4.87632 12.9335 5.14173 13.0435 5.41848 13.0435H11.3315V18.9565C11.3315 19.2333 11.4415 19.4987 11.6372 19.6944C11.8328 19.8901 12.0983 20 12.375 20C12.6517 20 12.9172 19.8901 13.1129 19.6944C13.3085 19.4987 13.4185 19.2333 13.4185 18.9565V13.0435H19.3315C19.6083 13.0435 19.8737 12.9335 20.0694 12.7379C20.2651 12.5422 20.375 12.2767 20.375 12C20.375 11.7233 20.2651 11.4578 20.0694 11.2622C19.8737 11.0665 19.6083 10.9565 19.3315 10.9565H13.4185V5.04348Z" fill="url(#paint0_linear_30_253)" style=""/>
  <defs>
    <linearGradient id="paint0_linear_30_253" x1="4.33311" y1="4.00011" x2="20.4376" y2="20.0205" gradientUnits="userSpaceOnUse">
      <stop stop-color="#3F8CFF" style="stop-color:#3F8CFF;stop-color:color(display-p3 0.2465 0.5479 1.0000);stop-opacity:1;"/>
      <stop offset="1" stop-color="#265499" style="stop-color:#265499;stop-color:color(display-p3 0.1479 0.3288 0.6000);stop-opacity:1;"/>
    </linearGradient>
  </defs>
</svg>